<svg width="30" height="24" viewBox="0 0 30 24" fill="none">
<g clip-path="url(#clip0_2112_301)">
<path d="M17.6644 7.09717C17.6644 7.3349 17.6209 7.55814 17.534 7.76688C17.447 7.97562 17.3223 8.15826 17.16 8.31482C16.9976 8.47137 16.815 8.59314 16.612 8.68011C16.4091 8.76709 16.1859 8.81348 15.9423 8.81927H6.87082L9.31482 11.2546C9.47717 11.4111 9.60184 11.5967 9.68881 11.8112C9.77579 12.0258 9.81927 12.2461 9.81927 12.4722C9.81927 12.71 9.77579 12.9332 9.68881 13.1419C9.60184 13.3507 9.47717 13.5333 9.31482 13.6899C9.15247 13.8464 8.96982 13.9682 8.76688 14.0552C8.56393 14.1422 8.3407 14.1885 8.09717 14.1943C7.87103 14.1943 7.65359 14.1508 7.44485 14.0639C7.23611 13.9769 7.04767 13.8522 6.87952 13.6899L1.53055 8.33221C1.3392 8.14087 1.20294 7.94373 1.12177 7.74078C1.04059 7.53784 1 7.30011 1 7.02759C1 6.80145 1.04929 6.58981 1.14786 6.39267C1.24643 6.19553 1.37399 6.01868 1.53055 5.86212L6.87952 0.504456C7.04187 0.342102 7.23032 0.217438 7.44485 0.130463C7.65939 0.0434875 7.87973 0 8.10587 0C8.3436 0 8.56683 0.0463867 8.77557 0.13916C8.98431 0.231934 9.16406 0.356598 9.31482 0.513153C9.46558 0.669708 9.58734 0.852356 9.68011 1.0611C9.77289 1.26984 9.81927 1.49307 9.81927 1.7308C9.81927 1.95694 9.77579 2.17438 9.68881 2.38312C9.60184 2.59186 9.47717 2.7774 9.31482 2.93976L6.87082 5.37506H15.9423C16.1801 5.37506 16.4033 5.41855 16.612 5.50552C16.8208 5.5925 17.0034 5.71716 17.16 5.87952C17.3165 6.04187 17.4383 6.22452 17.5253 6.42746C17.6122 6.6304 17.6586 6.85364 17.6644 7.09717Z" fill="#EEEBE5"/>
</g>
<g clip-path="url(#clip1_2112_301)">
<path d="M12.7789 15.0531C12.7789 14.8154 12.8224 14.5921 12.9094 14.3834C12.9964 14.1747 13.121 13.992 13.2834 13.8355C13.4457 13.6789 13.6284 13.5571 13.8313 13.4702C14.0343 13.3832 14.2575 13.3368 14.501 13.331L23.5725 13.331L21.1285 10.8957C20.9662 10.7391 20.8415 10.5536 20.7545 10.3391C20.6676 10.1245 20.6241 9.90418 20.6241 9.67804C20.6241 9.44031 20.6676 9.21707 20.7545 9.00833C20.8415 8.79959 20.9662 8.61694 21.1285 8.46039C21.2909 8.30383 21.4735 8.18207 21.6765 8.09509C21.8794 8.00812 22.1027 7.96173 22.3462 7.95593C22.5723 7.95593 22.7898 7.99942 22.9985 8.0864C23.2072 8.17337 23.3957 8.29804 23.5638 8.46039L28.9128 13.8181C29.1042 14.0094 29.2404 14.2065 29.3216 14.4095C29.4028 14.6124 29.4434 14.8502 29.4434 15.1227C29.4434 15.3488 29.3941 15.5605 29.2955 15.7576C29.1969 15.9547 29.0694 16.1316 28.9128 16.2881L23.5638 21.6458C23.4015 21.8082 23.213 21.9328 22.9985 22.0198C22.784 22.1068 22.5636 22.1503 22.3375 22.1503C22.0998 22.1503 21.8765 22.1039 21.6678 22.0111C21.459 21.9183 21.2793 21.7937 21.1285 21.6371C20.9778 21.4806 20.856 21.2979 20.7632 21.0892C20.6705 20.8804 20.6241 20.6572 20.6241 20.4195C20.6241 20.1933 20.6676 19.9759 20.7545 19.7672C20.8415 19.5584 20.9662 19.3729 21.1285 19.2105L23.5725 16.7752L14.501 16.7752C14.2633 16.7752 14.0401 16.7317 13.8313 16.6447C13.6226 16.5578 13.4399 16.4331 13.2834 16.2708C13.1268 16.1084 13.0051 15.9258 12.9181 15.7228C12.8311 15.5199 12.7847 15.2966 12.7789 15.0531Z" fill="#EEEBE5"/>
</g>
<defs>
<clipPath id="clip0_2112_301">
<rect width="17.8125" height="17.8125" fill="white"/>
</clipPath>
<clipPath id="clip1_2112_301">
<rect width="17.8125" height="17.8125" fill="white" transform="translate(30 23.4375) rotate(180)"/>
</clipPath>
</defs>
</svg>
